<svg width="27" height="30" viewBox="0 0 27 30" fill="none" xmlns="http://www.w3.org/2000/svg">
<path d="M14.9723 2.54428H11.8137C8.57608 2.74977 6.32659 4.57754 6.08721 8.22373V12.4278H4.26554V8.22373C4.26554 4.08282 7.63449 0.713867 11.7754 0.713867H14.9723C19.1133 0.713867 22.4822 4.08282 22.4822 8.22373V12.4278H20.6492V10.3416V8.15095C20.1477 4.59166 18.4099 2.97871 14.9723 2.54428Z" fill="white"/>
<path d="M24.4419 18.2191C24.4419 19.2996 23.5628 20.1788 22.4822 20.1788H20.464V14.3355H22.4822C23.5628 14.3355 24.4419 15.2147 24.4419 16.2952V18.2191Z" fill="white"/>
<path d="M13.7225 27.313H11.3131V26.4529H13.7225V27.313Z" fill="white"/>
<path fill-rule="evenodd" clip-rule="evenodd" d="M2.43207 12.8412C1.14663 13.4465 0.254395 14.7539 0.254395 16.2664V18.19C0.254395 20.2765 1.95192 21.974 4.03846 21.974H6.70001C7.35101 21.974 7.8808 21.4443 7.8808 20.7933V13.6628C7.8808 13.1997 7.56157 12.794 7.27185 12.5687C7.27185 12.5687 6.95903 12.2954 6.70001 12.2486C5.95194 12.1133 4.45157 12.1581 4.03846 12.2486C3.38525 12.3915 2.43207 12.8412 2.43207 12.8412ZM4.03846 20.15H6.05648V14.3064H4.03846C2.9579 14.3064 2.07849 15.1856 2.07849 16.2664V18.19C2.07849 19.2705 2.9579 20.15 4.03846 20.15Z" fill="white"/>
<path fill-rule="evenodd" clip-rule="evenodd" d="M11.3131 27.313H13.7225V26.4529H11.3131V27.313ZM11.8137 2.54428H14.9723C18.4099 2.97871 20.1477 4.59166 20.6492 8.15095V10.3416V12.4278H22.4822V8.22373C22.4822 4.08282 19.1133 0.713867 14.9723 0.713867H11.7754C7.63449 0.713867 4.26554 4.08282 4.26554 8.22373V12.4278H6.08721V8.22373C6.32659 4.57754 8.57608 2.74977 11.8137 2.54428ZM22.4822 20.1788C23.5628 20.1788 24.4419 19.2996 24.4419 18.2191V16.2952C24.4419 15.2147 23.5628 14.3355 22.4822 14.3355H20.464V20.1788H22.4822Z" fill="white"/>
<path fill-rule="evenodd" clip-rule="evenodd" d="M19.5059 12.6058C19.1685 12.8634 18.8482 13.1997 18.8482 13.6628V20.7933C18.8482 21.4443 19.3777 21.974 20.0287 21.974H21.0788V24.3487C21.0788 25.4402 20.1907 26.3285 19.099 26.3285H16.6633V25.8984C16.6633 25.3947 16.2549 24.9864 15.751 24.9864H12.3688C11.3966 24.9864 10.6055 25.7774 10.6055 26.7496V27.7314C10.6055 28.7038 11.3966 29.4949 12.3688 29.4949H15.751C16.2549 29.4949 16.6633 29.0865 16.6633 28.5826V28.1528H19.099C21.1965 28.1528 22.9029 26.4462 22.9029 24.3487V21.9678C24.891 21.857 26.4746 20.2052 26.4746 18.19V16.2664C26.4744 14.7539 25.5824 13.4465 24.2969 12.8412C24.2969 12.8412 23.331 12.282 22.9029 12.2486C21.7793 12.1607 20.4609 12.094 20.0294 12.2738C19.7976 12.3704 19.5059 12.6058 19.5059 12.6058ZM11.3131 27.313H13.7225V26.4529H11.3131V27.313ZM22.4822 20.1788C23.5628 20.1788 24.4419 19.2996 24.4419 18.2191V16.2952C24.4419 15.2147 23.5628 14.3355 22.4822 14.3355H20.464V20.1788H22.4822Z" fill="white"/>
<path d="M6.05648 20.15H4.03846C2.9579 20.15 2.07849 19.2705 2.07849 18.19V16.2664C2.07849 15.1856 2.9579 14.3064 4.03846 14.3064H6.05648V20.15Z" fill="white"/>
</svg>
