<svg width="22" height="22" viewBox="0 0 22 22" fill="none" xmlns="http://www.w3.org/2000/svg">
<path d="M20.7708 16.7912C21.5668 17.5872 21.5668 18.8822 20.7708 19.6782C20.7697 19.6795 20.7684 19.6806 20.7671 19.6819L19.3703 21.0613C19.2112 21.2184 19.0038 21.2969 18.7966 21.2969C18.5858 21.2969 18.3753 21.2159 18.2155 21.0541C17.8987 20.7332 17.9019 20.2162 18.2228 19.8993L19.04 19.0921H5.93544C4.13435 19.0921 2.66914 17.6269 2.66914 15.8258V2.70147L1.85448 3.50529C1.53344 3.82203 1.01638 3.81852 0.699638 3.49747C0.382896 3.17643 0.386405 2.65937 0.707453 2.34263L2.08702 0.981724C2.88078 0.198642 4.17231 0.198642 4.96608 0.981724L6.34564 2.34263C6.66669 2.65937 6.6702 3.17643 6.35346 3.49747C6.19365 3.65935 5.98297 3.74053 5.77213 3.74053C5.56495 3.74053 5.35778 3.66222 5.19861 3.50529L4.30229 2.62093V15.8258C4.30229 16.7263 5.03498 17.459 5.93544 17.459H19.1228L18.2228 16.5702C17.9019 16.2533 17.8986 15.7362 18.2155 15.4153C18.5324 15.0946 19.0494 15.0912 19.3703 15.4081L20.7671 16.7875C20.7684 16.7888 20.7697 16.7899 20.7708 16.7912ZM18.919 0.392578H8.34434C7.89219 0.392578 7.52617 0.760036 7.52776 1.21218C7.52952 1.66194 7.89458 2.02573 8.34434 2.02573H18.919C19.37 2.02573 19.7355 2.39127 19.7355 2.8423V13.4578C19.7355 13.9075 20.0993 14.2727 20.5491 14.2743C21.0012 14.2759 21.3687 13.9099 21.3687 13.4578V2.8423C21.3687 1.48937 20.2719 0.392578 18.919 0.392578ZM12.468 14.3924C12.9191 14.3924 13.2846 14.0268 13.2846 13.5758V9.94139C13.2846 8.70313 12.2773 7.69581 11.039 7.69581C10.4966 7.69581 9.99854 7.88911 9.61002 8.21048C9.22151 7.88911 8.72344 7.69581 8.18102 7.69581C7.86954 7.69581 7.57258 7.75977 7.30272 7.87492C7.15743 7.7419 6.96445 7.66009 6.75202 7.66009C6.30099 7.66009 5.93544 8.02563 5.93544 8.47666V13.5802C5.93544 14.0313 6.30099 14.3968 6.75202 14.3968C7.20304 14.3968 7.56859 14.0313 7.56859 13.5802V9.94139C7.56859 9.60376 7.84339 9.32896 8.18102 9.32896C8.51865 9.32896 8.79345 9.60376 8.79345 9.94139V13.5802C8.79345 14.0313 9.159 14.3968 9.61002 14.3968C10.0611 14.3968 10.4266 14.0313 10.4266 13.5802V9.94139C10.4266 9.60376 10.7014 9.32896 11.039 9.32896C11.3767 9.32896 11.6515 9.60376 11.6515 9.94139V13.5758C11.6515 14.0268 12.017 14.3924 12.468 14.3924ZM16.1732 4.80208C16.1689 4.80208 16.1648 4.80272 16.1605 4.80272C16.1563 4.80272 16.1522 4.80208 16.1479 4.80208C15.1095 4.80208 14.2645 5.648 14.2645 6.68769C14.2645 7.13856 14.63 7.50427 15.0811 7.50427C15.5321 7.50427 15.8976 7.13856 15.8976 6.68769C15.8976 6.55085 16.0123 6.43523 16.1479 6.43523C16.1522 6.43523 16.1563 6.43459 16.1606 6.43459C16.1648 6.43459 16.1689 6.43523 16.1732 6.43523C16.3032 6.43523 16.4139 6.54144 16.4228 6.67079C16.4067 6.7306 16.2815 7.10045 15.4991 7.9612C15.0138 8.49484 14.5369 8.92945 14.5323 8.93359C14.2824 9.16038 14.1978 9.51763 14.3194 9.8323C14.4409 10.1471 14.7436 10.3548 15.0811 10.3548H17.2858C17.7369 10.3548 18.1024 9.98924 18.1024 9.53821C18.1024 9.08718 17.7369 8.72163 17.2858 8.72163H17.005C17.73 7.86806 18.0566 7.23282 18.0566 6.68769C18.0566 5.648 17.2117 4.80208 16.1732 4.80208Z" fill="white" fill-opacity="0.4"/>
</svg>
