<svg width="72" height="73" viewBox="0 0 72 73" fill="none" xmlns="http://www.w3.org/2000/svg">
<path d="M61.5537 25.0586C62.332 25.0586 62.9629 24.4277 62.9629 23.6494C62.9629 22.8712 62.332 22.2402 61.5537 22.2402C60.7755 22.2402 60.1445 22.8712 60.1445 23.6494C60.1445 24.4277 60.7755 25.0586 61.5537 25.0586Z" fill="white"/>
<path d="M53.7851 46.765H44.3757C43.5991 46.765 42.9693 46.1354 42.9693 45.3587V43.6423C41.7625 43.2671 40.5931 42.7808 39.474 42.1886L38.268 43.3986C38.0042 43.6634 37.6457 43.8122 37.2719 43.8122C36.8981 43.8122 36.5396 43.6634 36.2758 43.3986L29.6223 36.7219C29.0752 36.1732 29.0752 35.2853 29.6223 34.7366L30.833 33.5216C30.2411 32.3964 29.755 31.2204 29.3805 30.007H27.6759C26.8993 30.007 26.2695 29.3774 26.2695 28.6006V19.1585C26.2695 18.3818 26.8993 17.7521 27.6759 17.7521H29.3805C29.755 16.5386 30.2409 15.3629 30.8329 14.2375L29.6223 13.0226C29.0752 12.4738 29.0752 11.586 29.6223 11.0372L36.2758 4.36068C36.5396 4.09586 36.8981 3.94707 37.2719 3.94707C37.6457 3.94707 38.0042 4.09586 38.268 4.36068L39.474 5.57071C40.593 4.97849 41.7625 4.49203 42.9693 4.11696V2.4005C42.9693 1.62377 43.5991 0.994141 44.3757 0.994141H53.7851C54.5616 0.994141 55.1914 1.62377 55.1914 2.4005V4.11682C56.3982 4.49189 57.5677 4.97835 58.6868 5.57057L59.8927 4.36054C60.1566 4.09572 60.515 3.94693 60.8888 3.94693C61.2627 3.94693 61.6211 4.09586 61.885 4.36054L68.5384 11.0371C69.0855 11.5858 69.0855 12.4737 68.5384 13.0224L67.3278 14.2374C67.9198 15.3627 68.4057 16.5385 68.7802 17.752H70.4848C71.2614 17.752 71.8912 18.3816 71.8912 19.1584V28.6005C71.8912 29.3772 71.2614 30.0069 70.4848 30.0069H68.7802C68.4057 31.2203 67.9196 32.3963 67.3277 33.5215L68.5384 34.7364C69.0855 35.2852 69.0855 36.173 68.5384 36.7218L61.885 43.3985C61.6211 43.6633 61.2627 43.8121 60.8888 43.8121C60.515 43.8121 60.1566 43.6632 59.8927 43.3985L58.6868 42.1884C57.5676 42.7808 56.3983 43.2671 55.1914 43.6422V45.3585C55.1914 46.1354 54.5616 46.765 53.7851 46.765ZM45.7819 43.9523H52.3786V42.5777C52.3786 41.9336 52.8161 41.3719 53.4405 41.2143C55.1152 40.7912 56.718 40.1245 58.2041 39.2324C58.7582 38.9 59.4677 38.9876 59.9239 39.4456L60.8886 40.4136L65.5565 35.7293L64.585 34.7544C64.1312 34.2991 64.0439 33.5941 64.3731 33.0418C65.2625 31.5494 65.9273 29.9402 66.349 28.2586C66.5058 27.6331 67.0681 27.1944 67.7131 27.1944H69.0781V20.565H67.7131C67.0681 20.565 66.5058 20.1262 66.349 19.5007C65.9273 17.8192 65.2625 16.2099 64.3731 14.7175C64.0439 14.1652 64.1312 13.4602 64.585 13.0049L65.5564 12.03L60.8886 7.34567L59.9239 8.31367C59.4677 8.77172 58.7582 8.85947 58.2041 8.52687C56.718 7.63482 55.1152 6.96806 53.4405 6.54503C52.8162 6.38724 52.3786 5.82554 52.3786 5.18157V3.80685H45.7819V5.18143C45.7819 5.82554 45.3444 6.38724 44.72 6.54489C43.0453 6.96792 41.4424 7.63468 39.9563 8.52673C39.4021 8.85933 38.6926 8.77144 38.2364 8.31353L37.2717 7.34553L32.6039 12.0298L33.5753 13.0047C34.0291 13.4601 34.1164 14.1652 33.7872 14.7174C32.8978 16.2098 32.233 17.8191 31.8113 19.5005C31.6545 20.1261 31.0922 20.5649 30.4473 20.5649H29.0822V27.1943H30.4473C31.0922 27.1943 31.6545 27.6329 31.8113 28.2585C32.233 29.9401 32.8978 31.5492 33.7872 33.0416C34.1164 33.5939 34.0291 34.2989 33.5753 34.7543L32.6038 35.7292L37.2717 40.4135L38.2364 39.4455C38.6926 38.9877 39.4024 38.9 39.9563 39.2323C41.4424 40.1243 43.0453 40.7911 44.72 41.2141C45.3442 41.3719 45.7819 41.9336 45.7819 42.5776V43.9523ZM49.0802 37.8003C41.4284 37.8003 35.203 31.5555 35.203 23.8795C35.203 16.2035 41.4284 9.95868 49.0802 9.95868C53.9278 9.95868 58.3443 12.4315 60.8947 16.5733C61.302 17.2348 61.096 18.1011 60.4346 18.5082C59.773 18.9155 58.907 18.7095 58.4996 18.048C56.4651 14.744 52.9439 12.7714 49.0802 12.7714C42.9792 12.7714 38.0157 17.7545 38.0157 23.8795C38.0157 30.0045 42.9792 34.9876 49.0802 34.9876C53.0416 34.9876 56.7253 32.8401 58.6937 29.383L58.7392 29.3021C59.117 28.6233 59.9733 28.3793 60.652 28.7569C61.3307 29.1345 61.575 29.9908 61.1974 30.6695L61.1389 30.7732C58.6706 35.1083 54.0503 37.8003 49.0802 37.8003Z" fill="white"/>
<path d="M21.6876 73.0007H14.3786C13.602 73.0007 12.9722 72.3711 12.9722 71.5943V70.4905C12.1678 70.2278 11.3853 69.9022 10.6307 69.5166L9.85645 70.2933C9.59262 70.5581 9.23414 70.7069 8.86033 70.7069C8.48652 70.7069 8.12804 70.558 7.86421 70.2933L2.69599 65.1069C2.14891 64.5582 2.14891 63.6704 2.69599 63.1216L3.47469 62.3401C3.08878 61.5805 2.76321 60.7929 2.50064 59.9832H1.40636C0.629626 59.9832 0 59.3535 0 58.5768V51.2422C0 50.4655 0.629626 49.8359 1.40636 49.8359H2.50064C2.76307 49.0262 3.08878 48.2385 3.47469 47.479L2.69599 46.6975C2.14891 46.1487 2.14891 45.2609 2.69599 44.7121L7.86421 39.5257C8.12804 39.2609 8.48652 39.1121 8.86033 39.1121C9.23414 39.1121 9.59262 39.2609 9.85645 39.5257L10.6307 40.3025C11.3853 39.9168 12.1679 39.5913 12.9722 39.3286V38.2247C12.9722 37.448 13.602 36.8184 14.3786 36.8184H21.6876C22.4643 36.8184 23.0939 37.448 23.0939 38.2247V39.3286C23.8984 39.5913 24.6809 39.9168 25.4355 40.3025L26.2097 39.5257C26.4735 39.2609 26.832 39.1121 27.2058 39.1121C27.5796 39.1121 27.9381 39.2611 28.202 39.5257L33.3702 44.7121C33.9173 45.2609 33.9173 46.1487 33.3702 46.6975L32.5915 47.479C32.9774 48.2385 33.3031 49.0262 33.5655 49.8359H34.6598C35.4365 49.8359 36.0662 50.4655 36.0662 51.2422V58.5768C36.0662 59.3535 35.4364 59.9832 34.6598 59.9832H33.5655C33.303 60.7928 32.9774 61.5804 32.5915 62.3401L33.3702 63.1216C33.9173 63.6704 33.9173 64.5582 33.3702 65.1069L28.202 70.2933C27.9381 70.5581 27.5796 70.7069 27.2058 70.7069C26.832 70.7069 26.4735 70.5581 26.2097 70.2933L25.4355 69.5166C24.6809 69.9022 23.8982 70.2278 23.0939 70.4905V71.5943C23.0939 72.3711 22.4643 73.0007 21.6876 73.0007ZM15.7851 70.188H20.2814V69.4342C20.2814 68.7902 20.7189 68.2284 21.3433 68.0707C22.6146 67.7496 23.831 67.2435 24.959 66.5665C25.5129 66.234 26.2227 66.3216 26.6789 66.7795L27.206 67.3085L30.3888 64.1145L29.855 63.5788C29.4012 63.1234 29.3138 62.4184 29.6431 61.8661C30.3182 60.7332 30.823 59.5115 31.1429 58.2351C31.2999 57.6095 31.8621 57.1707 32.5071 57.1707H33.2536V52.6489H32.5071C31.8621 52.6489 31.2999 52.2101 31.1429 51.5845C30.823 50.3081 30.3182 49.0864 29.6431 47.9535C29.3138 47.4013 29.401 46.6962 29.855 46.2408L30.3888 45.705L27.206 42.511L26.6789 43.0399C26.2227 43.4979 25.5131 43.5855 24.959 43.253C23.831 42.576 22.6144 42.0698 21.3433 41.7488C20.7189 41.5911 20.2814 41.0293 20.2814 40.3853V39.6315H15.7851V40.3853C15.7851 41.0294 15.3476 41.5911 14.7232 41.7488C13.4521 42.0698 12.2356 42.576 11.1074 43.253C10.553 43.5856 9.84366 43.4977 9.38743 43.0399L8.86033 42.511L5.67746 45.705L6.21132 46.2408C6.66529 46.6962 6.75248 47.4013 6.42325 47.9535C5.74806 49.0864 5.24332 50.3081 4.92337 51.5845C4.76643 52.2101 4.20416 52.6489 3.55921 52.6489H2.81271V57.1707H3.55921C4.20416 57.1707 4.76643 57.6095 4.92337 58.2351C5.24332 59.5115 5.74806 60.7332 6.42325 61.8661C6.75248 62.4184 6.66515 63.1234 6.21132 63.5788L5.67746 64.1145L8.86033 67.3085L9.38743 66.7795C9.8438 66.3216 10.5534 66.2341 11.1074 66.5665C12.2353 67.2436 13.4518 67.7496 14.7232 68.0707C15.3474 68.2284 15.7851 68.7902 15.7851 69.4342V70.188ZM18.0332 64.7985C12.5966 64.7985 8.17361 60.3625 8.17361 54.9096C8.17361 49.4569 12.5965 45.0207 18.0332 45.0207C23.4697 45.0207 27.8926 49.4569 27.8926 54.9096C27.8926 60.3623 23.4697 64.7985 18.0332 64.7985ZM18.0332 47.8332C14.1475 47.8332 10.9863 51.0077 10.9863 54.9095C10.9863 58.8112 14.1475 61.9857 18.0332 61.9857C21.9188 61.9857 25.0798 58.8112 25.0798 54.9095C25.0798 51.0077 21.9188 47.8332 18.0332 47.8332Z" fill="white"/>
</svg>
