<svg width="21" height="21" viewBox="0 0 21 21" fill="none" xmlns="http://www.w3.org/2000/svg">
<path d="M20.1409 7.16192H14.3631V1.38414C14.3631 1.1397 14.1631 0.939697 13.9187 0.939697H1.02977C0.785327 0.939697 0.585327 1.1397 0.585327 1.38414V14.273C0.585327 14.5175 0.785327 14.7175 1.02977 14.7175H6.80755V20.4953C6.80755 20.7397 7.00755 20.9397 7.25199 20.9397H20.1409C20.3853 20.9397 20.5853 20.7397 20.5853 20.4953V7.60636C20.5853 7.36192 20.3853 7.16192 20.1409 7.16192ZM6.80755 7.60636V12.8286H2.47422V2.82859H12.4742V7.16192H7.25199C7.00755 7.16192 6.80755 7.36192 6.80755 7.60636ZM12.4742 9.05081V12.8286H8.69644V9.05081H12.4742ZM18.6964 19.0508H8.69644V14.7175H13.9187C14.1631 14.7175 14.3631 14.5175 14.3631 14.273V9.05081H18.6964V19.0508Z" fill="#6C727D"/>
</svg>
