<svg width="58" height="58" viewBox="0 0 58 58" fill="none" xmlns="http://www.w3.org/2000/svg">
<g clip-path="url(#clip0)">
<path d="M50.8354 25.5626C51.3089 25.5626 51.6934 25.1781 51.6934 24.7042V11.2414C51.6934 10.1533 50.808 9.26782 49.7194 9.26782H46.3533V6.60837C46.3533 5.51892 45.4687 4.63435 44.3793 4.63435H40.9029V1.97401C40.9029 0.885895 40.017 0 38.9289 0H15.2385C14.7646 0 14.3801 0.384537 14.3801 0.858017C14.3801 1.33194 14.7646 1.71648 15.2385 1.71648H38.9289C39.0705 1.71648 39.1865 1.83197 39.1865 1.97401V46.7586C39.1865 46.9002 39.0705 47.0157 38.9289 47.0157C36.7991 47.0157 9.41075 47.0157 8.31776 47.0157C8.17572 47.0157 8.06023 46.9002 8.06023 46.7586V1.97401C8.06023 1.83197 8.17572 1.71648 8.31776 1.71648H11.8056C12.2791 1.71648 12.6636 1.33194 12.6636 0.858017C12.6636 0.384537 12.2791 0 11.8056 0H8.31776C7.22964 0 6.34375 0.885895 6.34375 1.97401V46.7586C6.34375 47.8467 7.22964 48.7322 8.31776 48.7322H11.7954V51.3916C11.7954 52.4811 12.6795 53.3656 13.7681 53.3656H17.1347V56.026C17.1347 57.1141 18.0201 58 19.1082 58H49.7194C50.808 58 51.6934 57.1141 51.6934 56.026V28.1371C51.6934 27.6636 51.3089 27.2791 50.8354 27.2791C50.3606 27.2791 49.9769 27.6636 49.9769 28.1371V56.026C49.9769 56.168 49.8615 56.2835 49.7194 56.2835H19.1082C18.9666 56.2835 18.8512 56.168 18.8512 56.026V53.3656H44.3793C45.4687 53.3656 46.3533 52.4811 46.3533 51.3916V39.5228C46.3533 39.0493 45.9696 38.6647 45.4948 38.6647C45.0209 38.6647 44.6368 39.0493 44.6368 39.5228V51.3916C44.6368 51.5337 44.5222 51.6492 44.3793 51.6492C43.5628 51.6492 14.5934 51.6492 13.7681 51.6492C13.6261 51.6492 13.5114 51.5337 13.5114 51.3916V48.7322H38.9289C40.017 48.7322 40.9029 47.8467 40.9029 46.7586C40.9029 45.5054 40.9029 8.33458 40.9029 6.35083H44.3793C44.5222 6.35083 44.6368 6.46632 44.6368 6.60837V10.9843V36.0903C44.6368 36.5651 45.0209 36.9483 45.4948 36.9483C45.9696 36.9483 46.3533 36.5651 46.3533 36.0903V10.9843H49.7194C49.8615 10.9843 49.9769 11.0998 49.9769 11.2414V24.7042C49.9769 25.1781 50.3606 25.5626 50.8354 25.5626Z" fill="white"/>
<path d="M28.4659 8.49614C28.4659 5.82607 26.2937 3.65381 23.6236 3.65381C20.9535 3.65381 18.7812 5.82607 18.7812 8.49614C18.7812 11.1662 20.9535 13.338 23.6236 13.338C26.2937 13.338 28.4659 11.1662 28.4659 8.49614ZM20.4977 8.49614C20.4977 6.77214 21.9 5.37029 23.6236 5.37029C25.3471 5.37029 26.7494 6.77258 26.7494 8.49614C26.7494 10.2197 25.3471 11.622 23.6236 11.622C21.9 11.622 20.4977 10.2197 20.4977 8.49614Z" fill="white"/>
<path d="M35.3338 9.35417C35.8082 9.35417 36.1923 8.97008 36.1923 8.49616C36.1923 8.02179 35.8082 7.6377 35.3338 7.6377H31.3097C30.8358 7.6377 30.4517 8.02179 30.4517 8.49616C30.4517 8.97008 30.8358 9.35417 31.3097 9.35417H35.3338Z" fill="white"/>
<path d="M15.9373 7.6377H11.9131C11.4392 7.6377 11.0547 8.02179 11.0547 8.49616C11.0547 8.97008 11.4392 9.35417 11.9131 9.35417H15.9373C16.4112 9.35417 16.7953 8.97008 16.7953 8.49616C16.7953 8.02179 16.4112 7.6377 15.9373 7.6377Z" fill="white"/>
<path d="M13.0386 16.6417C13.0386 17.1156 13.4227 17.4997 13.8966 17.4997H33.35C33.8239 17.4997 34.208 17.1156 34.208 16.6417C34.208 16.1673 33.8239 15.7832 33.35 15.7832H13.8966C13.4227 15.7832 13.0386 16.1673 13.0386 16.6417Z" fill="white"/>
<path d="M33.3495 19.9448H13.8966C13.4227 19.9448 13.0386 20.3289 13.0386 20.8028C13.0386 21.2768 13.4227 21.6609 13.8966 21.6609H33.3495C33.8239 21.6609 34.208 21.2768 34.208 20.8028C34.208 20.3289 33.8239 19.9448 33.3495 19.9448Z" fill="white"/>
<path d="M33.3495 24.1064H13.8966C13.4227 24.1064 13.0386 24.4905 13.0386 24.9645C13.0386 25.4388 13.4227 25.8229 13.8966 25.8229H33.3495C33.8239 25.8229 34.208 25.4388 34.208 24.9645C34.208 24.4905 33.8239 24.1064 33.3495 24.1064Z" fill="white"/>
<path d="M33.3495 28.2676H13.8966C13.4227 28.2676 13.0386 28.6517 13.0386 29.126C13.0386 29.6 13.4227 29.9841 13.8966 29.9841H33.3495C33.8239 29.9841 34.208 29.6 34.208 29.126C34.208 28.6517 33.8239 28.2676 33.3495 28.2676Z" fill="white"/>
<path d="M33.3495 32.4297H13.8966C13.4227 32.4297 13.0386 32.8138 13.0386 33.2881C13.0386 33.7621 13.4227 34.1462 13.8966 34.1462H33.3495C33.8239 34.1462 34.208 33.7621 34.208 33.2881C34.208 32.8138 33.8239 32.4297 33.3495 32.4297Z" fill="white"/>
<path d="M33.7224 36.7853C33.3556 36.4849 32.8153 36.5384 32.5144 36.9048L28.4177 41.9011L26.5184 40.04C26.1799 39.7085 25.6365 39.7138 25.3047 40.0524C24.9732 40.3909 24.9785 40.9343 25.317 41.2657L27.4437 43.3503C28.0411 43.9358 29.0115 43.8831 29.5425 43.2362L33.8419 37.9934C34.1424 37.627 34.0888 37.0858 33.7224 36.7853Z" fill="white"/>
</g>
<defs>
<clipPath id="clip0">
<rect width="58" height="58" fill="white"/>
</clipPath>
</defs>
</svg>
