<svg width="58" height="58" viewBox="0 0 58 58" fill="none" xmlns="http://www.w3.org/2000/svg">
<g clip-path="url(#clip0)">
<path d="M41.406 30.8395C41.014 30.8726 40.6959 31.1705 40.6373 31.5595C40.2062 34.4173 38.7467 36.6533 37.4501 38.1379C38.1437 35.2911 38.2995 32.4541 37.912 29.67C37.4433 26.3031 36.147 23.0205 34.1634 20.1769C30.0435 14.2714 28.634 9.3832 28.1771 6.3224C27.6838 3.01791 28.1645 1.07654 28.1685 1.06045C28.3778 0.267413 27.3957 -0.336658 26.7822 0.208954C20.9455 5.40077 18.3663 10.8826 17.2304 14.5671C16.8761 15.7165 16.6356 16.7649 16.4728 17.6789C13.7649 13.3497 8.26115 11.5666 7.97316 11.4758C7.24798 11.2471 6.59939 12.0621 6.98583 12.7176C9.57941 17.1186 8.46156 20.4861 6.85622 24.1219C6.41348 25.1244 7.96818 25.8106 8.41081 24.8083C9.89833 21.4396 11.0717 18.0557 9.47303 13.9436C11.8433 15.1167 15.5398 17.5575 16.1596 21.5721C16.3197 22.6085 17.912 22.4368 17.8474 21.3901C17.8413 21.292 17.3834 12.0147 26.2508 3.05269C26.1705 6.36783 26.9792 12.849 32.7696 21.1493C35.0735 24.4518 38.4135 31.3737 34.8975 40.626C34.6095 41.3838 35.5004 42.0872 36.1707 41.6296C36.3433 41.5117 39.6849 39.1898 41.4281 34.9915C41.532 35.5881 41.6038 36.1946 41.6038 36.7309C41.6038 47.5214 32.8316 56.3001 22.0492 56.3001C16.7206 56.3001 11.7433 54.151 8.39325 50.4039C5.16659 46.7949 3.69765 42.0626 4.25708 37.0788C4.61078 33.9284 5.56322 31.3352 6.24898 29.6584C6.66374 28.6441 5.09114 28.0009 4.67603 29.0152C3.95187 30.7857 2.94562 33.5283 2.56836 36.8892C1.95432 42.3602 3.57303 47.5621 7.12631 51.5368C10.7983 55.6439 16.2374 57.9996 22.0492 57.9996C33.7687 57.9996 43.3032 48.4585 43.3032 36.731C43.3032 34.5385 42.326 31.5468 42.2846 31.4205C42.1614 31.0468 41.7994 30.8078 41.406 30.8395Z" fill="white"/>
<path d="M35.8102 5.09008H38.3565V7.63642C38.3565 8.7323 40.0559 8.7323 40.0559 7.63642V5.09008H42.6024C43.6982 5.09008 43.6982 3.39071 42.6024 3.39071H40.0559V0.844364C40.0559 -0.251507 38.3565 -0.251507 38.3565 0.844364V3.39082H35.8102C34.7143 3.39071 34.7143 5.09008 35.8102 5.09008Z" fill="white"/>
<path d="M54.7368 9.12655H52.1903V6.5802C52.1903 5.48433 50.4909 5.48433 50.4909 6.5802V9.12655H47.9445C46.8486 9.12655 46.8486 10.8259 47.9445 10.8259H50.4909V13.3724C50.4909 14.4682 52.1903 14.4682 52.1903 13.3724V10.8259H54.7368C55.8326 10.8259 55.8326 9.12655 54.7368 9.12655Z" fill="white"/>
<path d="M46.2191 17.1466H43.6726V14.6002C43.6726 14.1308 43.2923 13.7505 42.8229 13.7505C42.3535 13.7505 41.9732 14.1308 41.9732 14.6002V17.1466H39.4269C38.331 17.1466 38.331 18.846 39.4269 18.846H41.9732V21.3924C41.9732 22.4882 43.6726 22.4882 43.6726 21.3924V18.846H46.2191C47.3149 18.846 47.3149 17.1466 46.2191 17.1466Z" fill="white"/>
<path d="M24.47 40.4189C25.028 41.3622 26.4905 40.4962 25.9323 39.5532C24.4661 37.0761 23.0794 35.0823 23.0211 34.9985C22.6898 34.5234 21.9583 34.5232 21.6269 34.9985C20.9844 35.9204 15.3501 44.1065 15.3501 47.6533C15.3501 51.4987 18.4785 54.6272 22.324 54.6272C26.1695 54.6272 29.2979 51.4988 29.2979 47.6533C29.2979 46.5947 28.832 45.1148 27.8737 43.1287C27.3973 42.1418 25.867 42.8804 26.3431 43.8673C27.3808 46.0175 27.5985 47.1129 27.5985 47.6533C27.5985 50.5618 25.2324 52.9278 22.324 52.9278C19.4156 52.9278 17.0495 50.5618 17.0495 47.6533C17.0495 45.4051 20.3893 39.9095 22.3222 36.9998C22.8653 37.8195 23.6614 39.0528 24.47 40.4189Z" fill="white"/>
</g>
<defs>
<clipPath id="clip0">
<rect width="58" height="58" fill="white"/>
</clipPath>
</defs>
</svg>
