<svg width="110" height="110" viewBox="0 0 110 110" fill="none" xmlns="http://www.w3.org/2000/svg">
<path d="M7.8686 27.7887L55 0.57735L102.131 27.7887V82.2113L55 109.423L7.8686 82.2113V27.7887Z" stroke="white" stroke-opacity="0.8"/>
<g clip-path="url(#clip0)">
<path d="M74.333 58.3337H72.2883L70.9998 39.6218C70.9756 39.2715 70.6843 39 70.333 39.0005H66.333C65.9817 39 65.6904 39.2715 65.6663 39.6218L64.3777 58.3337H63V54.3337C63 53.9658 62.7014 53.667 62.3335 53.667C62.1816 53.6667 62.0347 53.7185 61.9165 53.8132L56.3333 58.2798V54.3337C56.3333 53.9658 56.0349 53.667 55.6667 53.667C55.5151 53.6667 55.3682 53.7185 55.25 53.8132L49.6667 58.2798V54.3337C49.6667 53.9658 49.3684 53.667 49.0002 53.667C48.8486 53.6667 48.7014 53.7185 48.5835 53.8132L43.0002 58.2798V54.3337C43 53.9658 42.7014 53.6672 42.3335 53.6672C42.2122 53.6672 42.0938 53.7002 41.99 53.7625L35.3232 57.7625C35.1228 57.8831 35 58.0996 35 58.3337V74.3337C35 74.7019 35.2986 75.0002 35.6667 75.0002H74.333C74.7012 75.0002 74.9998 74.7019 74.9998 74.3337V59.0005C74.9998 58.6321 74.7012 58.3337 74.333 58.3337ZM66.9556 40.3337H69.7104L70.9521 58.3337H65.7139L66.9556 40.3337ZM57.6663 73.667V65.667H61.6663V73.667H57.6663ZM73.6665 73.667H63V65.0002C63 64.6323 62.7012 64.3337 62.333 64.3337H56.9998C56.6316 64.3337 56.333 64.6323 56.333 65.0002V73.667H36.3333V58.7112L41.6665 55.5112V59.667C41.6665 60.0354 41.9648 60.3337 42.333 60.3342C42.4844 60.3342 42.6316 60.2825 42.75 60.1877L48.3333 55.7212V59.667C48.3333 60.0354 48.6313 60.3337 48.9998 60.3342C49.1511 60.3342 49.2981 60.2825 49.4165 60.188L54.9998 55.7214V59.6672C54.9998 60.0354 55.2979 60.3342 55.6663 60.3342C55.8176 60.3342 55.9646 60.2825 56.083 60.188L61.6663 55.7214V59.0005C61.6663 59.3689 61.9648 59.6672 62.333 59.6672H73.666V73.667H73.6665Z" fill="white"/>
<path d="M57.6616 36.3338C57.9041 36.4637 58.1231 36.6331 58.3098 36.8351C58.6836 37.2909 59.2158 37.5877 59.7996 37.6671C60.4146 37.5887 60.9761 37.2789 61.3704 36.8004C61.5391 36.6234 61.7278 36.4669 61.9331 36.3338C62.0703 36.3399 62.4297 36.6764 62.6231 36.857C62.9827 37.3021 63.4993 37.5919 64.0662 37.6671C64.721 37.5841 65.3193 37.2557 65.741 36.7484C65.9043 36.5951 66.1516 36.3624 66.1995 36.3338C66.5574 36.3338 66.6394 36.4525 66.8596 36.7699C67.1489 37.3165 67.7144 37.661 68.333 37.6671C68.7009 37.6671 68.9995 37.3685 68.9995 37.0006C68.9995 36.6322 68.7009 36.3338 68.333 36.3338C68.1995 36.3338 68.1736 36.3246 67.957 36.0118C67.603 35.3758 66.927 34.9869 66.1995 35.0003C65.6602 35.0753 65.1694 35.3526 64.8276 35.7765C64.6062 35.9852 64.2351 36.3338 64.0942 36.337C63.8877 36.212 63.6992 36.0597 63.5327 35.8846C63.1318 35.3963 62.5596 35.0802 61.9329 35.0003C61.355 35.0792 60.8286 35.3736 60.4587 35.8243C60.2717 36.025 60.0557 36.1966 59.8181 36.3338C59.596 36.2064 59.3938 36.0472 59.2183 35.8604C58.8286 35.3873 58.2739 35.0802 57.666 35.0003C57.2981 34.9991 56.9983 35.2965 56.9971 35.6649C56.9959 36.0328 57.2935 36.3326 57.6616 36.3338Z" fill="white"/>
<path d="M42.3335 65.667H39.6665C39.2983 65.667 39 65.9656 39 66.3335V70.3335C39 70.7019 39.2983 71.0002 39.6665 71.0002H42.3335C42.7014 71.0002 43 70.7019 43 70.3335V66.3335C43 65.9656 42.7014 65.667 42.3335 65.667ZM41.6665 69.667H40.3333V67.0005H41.6665V69.667Z" fill="white"/>
<path d="M47.6665 65.667H44.9998C44.6313 65.667 44.333 65.9656 44.333 66.3335V70.3335C44.333 70.7019 44.6313 71.0002 44.9998 71.0002H47.6665C48.0344 71.0002 48.333 70.7019 48.333 70.3335V66.3335C48.333 65.9656 48.0344 65.667 47.6665 65.667ZM46.9995 69.667H45.6663V67.0005H46.9995V69.667Z" fill="white"/>
<path d="M53 65.667H50.3333C49.9648 65.667 49.6665 65.9656 49.6665 66.3335V70.3335C49.6665 70.7019 49.9648 71.0002 50.3333 71.0002H53C53.3679 71.0002 53.6665 70.7019 53.6665 70.3335V66.3335C53.6665 65.9656 53.3679 65.667 53 65.667ZM52.333 69.667H50.9998V67.0005H52.333V69.667Z" fill="white"/>
</g>
<defs>
<clipPath id="clip0">
<rect x="35" y="35" width="40" height="40" fill="white"/>
</clipPath>
</defs>
</svg>
