<svg width="58" height="58" viewBox="0 0 58 58" fill="none" xmlns="http://www.w3.org/2000/svg">
<g clip-path="url(#clip0)">
<path d="M47.0349 17.3279C46.8545 17.0582 46.5349 16.915 46.2145 16.9587L31.7958 18.9185L33.6504 9.18157C33.7382 8.72063 33.4357 8.27577 32.9748 8.18798C32.5149 8.1003 32.0691 8.40276 31.9812 8.86358L29.9057 19.7604C29.8545 20.0289 29.9357 20.3057 30.1237 20.504C30.3117 20.7024 30.584 20.7981 30.8546 20.7613L44.7215 18.8764L25.2647 52.3784L28.7035 34.6103C28.7927 34.1497 28.4916 33.704 28.0309 33.6148C27.5703 33.5253 27.1244 33.8268 27.0354 34.2875L22.6415 56.989C22.5628 57.396 22.7893 57.8005 23.1774 57.9459C23.2751 57.9826 23.3759 58.0002 23.4754 58.0002C23.7708 58.0002 24.0545 57.8454 24.2102 57.5772L47.0635 18.2272C47.2265 17.9466 47.2155 17.5977 47.0349 17.3279Z" fill="white"/>
<path d="M34.718 0.0733137C34.3571 -0.086979 33.9339 0.0221106 33.6956 0.336692L10.9936 30.3032C10.7892 30.5732 10.7646 30.9387 10.9309 31.2338C11.0973 31.5287 11.4222 31.6964 11.7598 31.6612L27.8721 29.9651L27.7386 30.6552C27.6495 31.1158 27.9506 31.5616 28.4113 31.6507C28.4658 31.6613 28.52 31.6664 28.5736 31.6664C28.9725 31.6664 29.3283 31.3843 29.4068 30.9781L29.7584 29.1615C29.8096 28.8971 29.7325 28.6242 29.5504 28.4257C29.3684 28.2274 29.1042 28.1276 28.8354 28.1551L13.5324 29.766L32.8593 4.2544L32.6733 5.23111C32.5855 5.69205 32.8879 6.13691 33.3489 6.2247C33.8091 6.31272 34.2547 6.01003 34.3425 5.54909L35.2074 1.00868C35.2812 0.621028 35.0784 0.233606 34.718 0.0733137Z" fill="white"/>
</g>
<defs>
<clipPath id="clip0">
<rect width="58" height="58" fill="white"/>
</clipPath>
</defs>
</svg>
