<svg width="17" height="22" viewBox="0 0 17 22" fill="none" xmlns="http://www.w3.org/2000/svg">
<path d="M16.7074 5.52813C16.848 5.66875 16.9277 5.85859 16.9277 6.05781V20.5117C16.9277 20.9266 16.5926 21.2617 16.1777 21.2617H1.17773C0.762891 21.2617 0.427734 20.9266 0.427734 20.5117V1.01172C0.427734 0.596875 0.762891 0.261719 1.17773 0.261719H11.1316C11.3309 0.261719 11.523 0.341406 11.6637 0.482031L16.7074 5.52813ZM15.198 6.40234L10.7871 1.99141V6.40234H15.198ZM4.17773 10.0586C4.12801 10.0586 4.08031 10.0783 4.04515 10.1135C4.00999 10.1487 3.99023 10.1964 3.99023 10.2461V11.3711C3.99023 11.4208 4.00999 11.4685 4.04515 11.5037C4.08031 11.5388 4.12801 11.5586 4.17773 11.5586H13.1777C13.2275 11.5586 13.2752 11.5388 13.3103 11.5037C13.3455 11.4685 13.3652 11.4208 13.3652 11.3711V10.2461C13.3652 10.1964 13.3455 10.1487 13.3103 10.1135C13.2752 10.0783 13.2275 10.0586 13.1777 10.0586H4.17773ZM4.17773 13.2461C4.12801 13.2461 4.08031 13.2658 4.04515 13.301C4.00999 13.3362 3.99023 13.3839 3.99023 13.4336V14.5586C3.99023 14.6083 4.00999 14.656 4.04515 14.6912C4.08031 14.7263 4.12801 14.7461 4.17773 14.7461H8.49023C8.53996 14.7461 8.58765 14.7263 8.62282 14.6912C8.65798 14.656 8.67773 14.6083 8.67773 14.5586V13.4336C8.67773 13.3839 8.65798 13.3362 8.62282 13.301C8.58765 13.2658 8.53996 13.2461 8.49023 13.2461H4.17773Z" fill="#0B75C2"/>
</svg>
