<svg width="58" height="52" viewBox="0 0 58 52" fill="none" xmlns="http://www.w3.org/2000/svg">
<path d="M22.373 9.12109C22.373 8.65188 21.9926 8.27148 21.5234 8.27148H15.4062C14.937 8.27148 14.5566 8.65188 14.5566 9.12109V14.7852C14.5566 15.2544 14.937 15.6348 15.4062 15.6348H21.5234C21.9926 15.6348 22.373 15.2544 22.373 14.7852V9.12109ZM20.6738 13.9355H16.2559V9.9707H20.6738V13.9355Z" fill="white"/>
<path d="M43.4434 9.12109C43.4434 8.65188 43.063 8.27148 42.5938 8.27148H36.4766C36.0074 8.27148 35.627 8.65188 35.627 9.12109V14.7852C35.627 15.2544 36.0074 15.6348 36.4766 15.6348H42.5938C43.063 15.6348 43.4434 15.2544 43.4434 14.7852V9.12109ZM41.7441 13.9355H37.3262V9.9707H41.7441V13.9355Z" fill="white"/>
<path d="M32.9082 9.12109C32.9082 8.65188 32.5278 8.27148 32.0586 8.27148H25.9414C25.4722 8.27148 25.0918 8.65188 25.0918 9.12109V14.7852C25.0918 15.2544 25.4722 15.6348 25.9414 15.6348H32.0586C32.5278 15.6348 32.9082 15.2544 32.9082 14.7852V9.12109ZM31.209 13.9355H26.791V9.9707H31.209V13.9355Z" fill="white"/>
<path d="M22.373 18.8633C22.373 18.3941 21.9926 18.0137 21.5234 18.0137H15.4062C14.937 18.0137 14.5566 18.3941 14.5566 18.8633V24.5273C14.5566 24.9966 14.937 25.377 15.4062 25.377H21.5234C21.9926 25.377 22.373 24.9966 22.373 24.5273V18.8633ZM20.6738 23.6777H16.2559V19.7129H20.6738V23.6777Z" fill="white"/>
<path d="M43.4434 18.8633C43.4434 18.3941 43.063 18.0137 42.5938 18.0137H36.4766C36.0074 18.0137 35.627 18.3941 35.627 18.8633V24.5273C35.627 24.9966 36.0074 25.377 36.4766 25.377H42.5938C43.063 25.377 43.4434 24.9966 43.4434 24.5273V18.8633ZM41.7441 23.6777H37.3262V19.7129H41.7441V23.6777Z" fill="white"/>
<path d="M32.9082 18.8633C32.9082 18.3941 32.5278 18.0137 32.0586 18.0137H25.9414C25.4722 18.0137 25.0918 18.3941 25.0918 18.8633V24.5273C25.0918 24.9966 25.4722 25.377 25.9414 25.377H32.0586C32.5278 25.377 32.9082 24.9966 32.9082 24.5273V18.8633ZM31.209 23.6777H26.791V19.7129H31.209V23.6777Z" fill="white"/>
<path d="M21.5234 27.8691H15.4062C14.937 27.8691 14.5566 28.2495 14.5566 28.7188V34.3828C14.5566 34.852 14.937 35.2324 15.4062 35.2324H21.5234C21.9926 35.2324 22.373 34.852 22.373 34.3828V28.7188C22.373 28.2495 21.9926 27.8691 21.5234 27.8691ZM20.6738 33.5332H16.2559V29.5684H20.6738V33.5332Z" fill="white"/>
<path d="M42.5938 27.8691H36.4766C36.0074 27.8691 35.627 28.2495 35.627 28.7188V34.3828C35.627 34.852 36.0074 35.2324 36.4766 35.2324H42.5938C43.063 35.2324 43.4434 34.852 43.4434 34.3828V28.7188C43.4434 28.2495 43.063 27.8691 42.5938 27.8691ZM41.7441 33.5332H37.3262V29.5684H41.7441V33.5332Z" fill="white"/>
<path d="M32.0586 27.8691H25.9414C25.4722 27.8691 25.0918 28.2495 25.0918 28.7188V34.3828C25.0918 34.852 25.4722 35.2324 25.9414 35.2324H32.0586C32.5278 35.2324 32.9082 34.852 32.9082 34.3828V28.7188C32.9082 28.2495 32.5278 27.8691 32.0586 27.8691ZM31.209 33.5332H26.791V29.5684H31.209V33.5332Z" fill="white"/>
<path d="M55.3379 46.334H47.6348V4.58984C47.6348 4.12063 47.2544 3.74023 46.7852 3.74023H43.5436C43.0744 3.74023 42.694 4.12063 42.694 4.58984C42.694 5.05905 43.0744 5.43945 43.5436 5.43945H45.9355V46.334H40.1582V38.1211C40.1582 37.6519 39.7778 37.2715 39.3086 37.2715H33.5574C33.0882 37.2715 32.7078 37.6519 32.7078 38.1211C32.7078 38.5903 33.0882 38.9707 33.5574 38.9707H34.6074V46.334H23.3926V38.9707H29.8975C30.3667 38.9707 30.7471 38.5903 30.7471 38.1211C30.7471 37.6519 30.3667 37.2715 29.8975 37.2715H18.6914C18.2222 37.2715 17.8418 37.6519 17.8418 38.1211V46.334H12.0645V40.9502C12.0645 40.481 11.6841 40.1006 11.2148 40.1006C10.7456 40.1006 10.3652 40.481 10.3652 40.9502V46.334H2.66211C1.19421 46.334 0 47.5282 0 48.9961C0 50.464 1.19421 51.6582 2.66211 51.6582H55.3379C56.8058 51.6582 58 50.464 58 48.9961C58 47.5282 56.8058 46.334 55.3379 46.334ZM36.3066 38.9707H38.459V46.334H36.3066V38.9707ZM19.541 38.9707H21.6934V46.334H19.541V38.9707ZM55.3379 49.959H2.66211C2.13116 49.959 1.69922 49.527 1.69922 48.9961C1.69922 48.4651 2.13116 48.0332 2.66211 48.0332H55.3379C55.8688 48.0332 56.3008 48.4651 56.3008 48.9961C56.3008 49.527 55.8688 49.959 55.3379 49.959Z" fill="white"/>
<path d="M11.2148 38.1981C11.6841 38.1981 12.0645 37.8177 12.0645 37.3485V5.43945H39.7792C40.2484 5.43945 40.6288 5.05905 40.6288 4.58984C40.6288 4.12063 40.2484 3.74023 39.7792 3.74023H22.5996V1.19141C22.5996 0.722195 22.2192 0.341797 21.75 0.341797H14.9531C14.4839 0.341797 14.1035 0.722195 14.1035 1.19141V3.74023H11.2148C10.7456 3.74023 10.3652 4.12063 10.3652 4.58984V37.3485C10.3652 37.8177 10.7456 38.1981 11.2148 38.1981ZM15.8027 2.04102H20.9004V3.74023H15.8027V2.04102Z" fill="white"/>
</svg>
