<svg width="58" height="58" viewBox="0 0 58 58" fill="none" xmlns="http://www.w3.org/2000/svg">
<g clip-path="url(#clip0)">
<path d="M51.3203 40.9311C51.0022 40.7992 50.6361 40.8721 50.3925 41.1155L41.0892 50.4189C40.8457 50.6624 40.7729 51.0286 40.9047 51.3467C41.0364 51.6649 41.347 51.8722 41.6912 51.8722H50.9946C51.4648 51.8722 51.8459 51.4911 51.8459 51.0209V41.7175C51.8458 41.3732 51.6384 41.0628 51.3203 40.9311ZM43.7462 50.1697L50.1431 43.7728V50.1697H43.7462Z" fill="white"/>
<path d="M57.4746 27.2861C57.1565 27.1543 56.7904 27.2271 56.5468 27.4706L53.9972 30.0202V12.6846C53.9972 12.2144 53.616 11.8333 53.1459 11.8333H46.6049L48.9793 9.45892C48.9796 9.45858 48.98 9.45813 48.9803 9.45779L51.2681 7.16996C51.7583 6.67979 52.0283 6.02774 52.0283 5.33446C52.0283 4.64117 51.7583 3.98935 51.2681 3.49896L48.6226 0.85338C48.1324 0.363211 47.4803 0.0932617 46.7871 0.0932617C46.0938 0.0932617 45.4418 0.363211 44.9516 0.85338L42.6626 3.14235L39.8967 5.90823L33.9718 11.8332H7.54681V3.41128C7.54681 2.94104 7.16562 2.55997 6.6955 2.55997C3.00366 2.56019 0 5.56362 0 9.25569V45.4136C0 45.4764 0.00725002 45.5376 0.0201641 45.5965C0.13775 47.1631 0.815513 48.6186 1.94821 49.7236C3.15897 50.9044 4.75726 51.5548 6.44877 51.5548H32.4625L27.5632 56.4541C27.3198 56.6976 27.2469 57.0636 27.3787 57.3819C27.5104 57.6999 27.8209 57.9074 28.1652 57.9074H57.1488C57.6189 57.9074 58.0001 57.5263 58.0001 57.0561V28.0727C58.0001 27.7284 57.7926 27.4179 57.4746 27.2861ZM46.1557 2.05745C46.5037 1.70922 47.0707 1.70922 47.4187 2.05745L50.0644 4.70314C50.4126 5.05125 50.4126 5.618 50.0644 5.96623L48.3775 7.65321L44.4686 3.74444L46.1557 2.05745ZM43.2647 4.94839L47.1735 8.85706L45.6114 10.4191L41.7029 6.51043L43.2647 4.94839ZM56.2977 37.6384H54.7271C54.2568 37.6384 53.8758 38.0194 53.8758 38.4897C53.8758 38.9599 54.2568 39.341 54.7271 39.341H56.2977V41.9064H54.7271C54.2568 41.9064 53.8758 42.2874 53.8758 42.7577C53.8758 43.2279 54.2568 43.609 54.7271 43.609H56.2977V46.1742H54.7271C54.2568 46.1742 53.8758 46.5553 53.8758 47.0256C53.8758 47.4958 54.2568 47.8769 54.7271 47.8769H56.2977V50.4422H54.7271C54.2568 50.4422 53.8758 50.8234 53.8758 51.2935C53.8758 51.7638 54.2568 52.1449 54.7271 52.1449H56.2977V56.2051H30.2203L38.8193 47.6062C39.1518 47.2736 39.1518 46.7348 38.8193 46.4023C38.7811 46.3641 38.7401 46.331 38.6972 46.3016C38.3657 46.0746 37.9096 46.108 37.6152 46.4023L34.1651 49.8524H6.44889C3.86698 49.8524 1.78849 47.8366 1.7067 45.2594C1.71157 45.0976 1.72414 44.9372 1.74431 44.7786C1.74442 44.7777 1.74453 44.7768 1.74465 44.7759C1.75416 44.7006 1.76561 44.6256 1.77863 44.551C1.78011 44.5425 1.78169 44.534 1.78316 44.5255C1.79506 44.459 1.80843 44.3929 1.82304 44.327C1.82712 44.3086 1.83142 44.2903 1.83573 44.272C1.84864 44.2163 1.86257 44.1609 1.87753 44.1057C1.88568 44.0758 1.89418 44.0462 1.9029 44.0165C1.91536 43.9732 1.92828 43.93 1.94198 43.8873C1.95569 43.8446 1.9703 43.8023 1.98514 43.7601C1.99545 43.7305 2.00565 43.701 2.01675 43.6716C2.03748 43.6159 2.05946 43.5607 2.08211 43.506C2.08857 43.4903 2.09491 43.4743 2.1016 43.4585C2.13071 43.3906 2.16096 43.3234 2.1929 43.257C2.19426 43.2542 2.19551 43.2514 2.19687 43.2485C2.86274 41.8706 4.14338 40.8432 5.68027 40.5244C5.68458 40.5235 5.68888 40.5225 5.69319 40.5216C5.76365 40.5072 5.83479 40.4949 5.90638 40.4834C5.91828 40.4815 5.93017 40.4791 5.94229 40.4773C6.00698 40.4675 6.07234 40.4598 6.1377 40.4524C6.15606 40.4504 6.17429 40.4475 6.19276 40.4457C6.25586 40.4394 6.31952 40.4352 6.38318 40.4312C6.40335 40.43 6.42351 40.4278 6.44368 40.4268C6.52705 40.4226 6.61111 40.4204 6.6955 40.4204C7.16562 40.4204 7.54681 40.0394 7.54681 39.5691V33.3965C7.54681 32.9263 7.16562 32.5452 6.6955 32.5452C6.22538 32.5452 5.84419 32.9263 5.84419 33.3965V38.7714C4.40665 38.9532 3.07231 39.5944 2.02015 40.6219C1.90947 40.7299 1.80457 40.8423 1.70239 40.9565V9.25569C1.70239 6.79284 3.49519 4.74052 5.84408 4.3352V12.6846V29.9914V29.9915C5.84408 30.4616 6.22527 30.8428 6.69539 30.8428C7.16551 30.8428 7.5467 30.4616 7.5467 29.9915V29.9914V13.5359H32.2692L27.5631 18.2421C27.2306 18.5747 27.2306 19.1136 27.5631 19.446C27.8956 19.7784 28.4346 19.7784 28.7669 19.446L34.9264 13.2866C34.9266 13.2864 34.9267 13.2861 34.9269 13.286L40.4987 7.71427L44.4072 11.623L43.9487 12.0816C43.9483 12.082 43.9479 12.0823 43.9476 12.0826L26.7822 29.2482L22.8736 25.3395L26.2571 21.956C26.5895 21.6234 26.5895 21.0845 26.2571 20.7521C25.9246 20.4197 25.3856 20.4197 25.0532 20.7521L21.0676 24.7375C21.0463 24.7588 21.0264 24.7814 21.0077 24.8045C21.0015 24.8122 20.9959 24.8205 20.99 24.8285C20.978 24.8445 20.9662 24.8606 20.9553 24.8773C20.949 24.8871 20.9434 24.897 20.9375 24.9071C20.9281 24.923 20.919 24.9391 20.9107 24.9555C20.9053 24.9661 20.9004 24.9769 20.8954 24.988C20.8879 25.0047 20.8808 25.0216 20.8744 25.0386C20.8721 25.0446 20.8692 25.0503 20.867 25.0563L19.2085 29.7547L18.0777 32.9581C18.0627 33.0007 18.052 33.044 18.0439 33.0876H15.2128C14.7427 33.0876 14.3615 33.4687 14.3615 33.9389C14.3615 34.4092 14.7427 34.7902 15.2128 34.7902H38.7883C39.2585 34.7902 39.6396 34.4092 39.6396 33.9389C39.6396 33.4687 39.2585 33.0876 38.7883 33.0876H21.8739L27.0656 31.255C27.0699 31.2534 27.0739 31.2512 27.0782 31.2496C27.0984 31.2422 27.1182 31.2338 27.1378 31.2248C27.1456 31.2212 27.1535 31.2178 27.161 31.2141C27.1814 31.2039 27.2015 31.1926 27.2212 31.1806C27.2275 31.1768 27.2341 31.1733 27.2403 31.1693C27.2608 31.1562 27.2808 31.1418 27.3004 31.1266C27.3053 31.1229 27.3104 31.1196 27.3151 31.1157C27.3388 31.0967 27.362 31.0762 27.384 31.0542L44.9023 13.536H52.2945V31.7229L40.1172 43.9003C39.7847 44.2329 39.7847 44.7718 40.1172 45.1043C40.1379 45.125 40.1595 45.1445 40.1818 45.1628C40.338 45.29 40.5286 45.3536 40.7191 45.3536C40.9097 45.3536 41.1004 45.29 41.2564 45.1628C41.2788 45.1446 41.3004 45.125 41.3211 45.1043C41.3215 45.104 41.3211 45.1043 41.3215 45.104L56.2977 30.1276V37.6384ZM25.2252 30.0988L22.7867 30.9596L21.162 29.3349L22.0228 26.8965L25.2252 30.0988Z" fill="white"/>
</g>
<defs>
<clipPath id="clip0">
<rect width="58" height="58" fill="white"/>
</clipPath>
</defs>
</svg>
