<svg width="58" height="58" viewBox="0 0 58 58" fill="none" xmlns="http://www.w3.org/2000/svg">
<path d="M32.9961 24.9764C32.9823 24.9394 32.9663 24.9033 32.9482 24.8684L30.6824 20.5015C30.4345 20.0237 29.8463 19.837 29.3678 20.0852C28.8898 20.3331 28.7034 20.9217 28.9515 21.3997L31.1896 25.7133C32.3792 28.9418 32.2486 32.441 30.8199 35.5731C29.3831 38.7228 26.8053 41.1245 23.5618 42.3359C22.243 42.8285 20.8608 43.1015 19.4532 43.1477C18.0457 43.1015 16.6635 42.8285 15.3444 42.3359C12.1009 41.1246 9.52334 38.7229 8.08648 35.5731C6.65778 32.441 6.52705 28.9417 7.71696 25.7133L19.4531 3.09235L27.4052 18.4195C27.6533 18.8975 28.2416 19.0839 28.7199 18.8361C29.1979 18.588 29.3843 17.9995 29.1364 17.5214L20.3188 0.525965C20.1511 0.202773 19.8172 0 19.4531 0C19.0889 0 18.7552 0.202773 18.5875 0.525965L5.95793 24.8684C5.93992 24.9034 5.92394 24.9394 5.91012 24.9764C4.51643 28.7078 4.65905 32.7586 6.31227 36.3824C7.96527 40.0061 10.9306 42.7692 14.6621 44.1627C16.1904 44.7335 17.7924 45.0481 19.4234 45.0978C19.4333 45.0982 19.4433 45.0983 19.4532 45.0983C19.4631 45.0983 19.4731 45.0982 19.4828 45.0978C21.1139 45.0481 22.716 44.7335 24.244 44.1627C27.9755 42.7692 30.941 40.0061 32.594 36.3824C34.2471 32.7589 34.3899 28.7081 32.9961 24.9764Z" fill="white"/>
<path d="M52.5448 31.5076C52.5309 31.4707 52.5148 31.4346 52.4968 31.3997L50.2755 27.1182C50.0276 26.6404 49.4394 26.4539 48.9609 26.7017C48.4828 26.9497 48.2965 27.5382 48.5443 28.0163L50.7375 32.2433C51.8369 35.2754 50.2847 38.6459 47.2568 39.7766C46.6616 39.9987 46.0384 40.1228 45.4038 40.1454C44.7692 40.1229 44.1459 39.9988 43.5508 39.7767C42.0751 39.2257 40.9025 38.133 40.249 36.7001C39.6033 35.2845 39.5403 33.704 40.0703 32.2434L45.4038 21.9634L47.1709 25.3694C47.4191 25.8474 48.0074 26.0338 48.4855 25.7859C48.9636 25.5378 49.1499 24.9493 48.902 24.4713L46.2693 19.3971C46.1017 19.074 45.7678 18.8711 45.4037 18.8711C45.0395 18.8711 44.7058 19.0739 44.5381 19.3971L38.3109 31.3997C38.2927 31.4347 38.2768 31.4707 38.2629 31.5076C37.5296 33.4711 37.6047 35.6026 38.4744 37.5095C39.3443 39.4164 40.9048 40.8702 42.8685 41.6037C43.6728 41.9039 44.5157 42.0694 45.3738 42.0957C45.3838 42.096 45.3938 42.0961 45.4037 42.0961C45.4137 42.0961 45.4236 42.096 45.434 42.0956C46.292 42.0694 47.1348 41.9039 47.9392 41.6035C51.9923 40.0899 54.0584 35.5609 52.5448 31.5076Z" fill="white"/>
<path d="M40.0984 50.3968L35.949 42.399C35.7814 42.0759 35.4475 41.873 35.0835 41.873C34.7193 41.873 34.3855 42.0758 34.218 42.399L30.0682 50.3968C30.0499 50.4318 30.0338 50.4678 30.02 50.5049C28.949 53.3738 30.4114 56.5796 33.2805 57.6511C33.8497 57.8634 34.4461 57.9805 35.0534 57.9992C35.0634 57.9995 35.0734 57.9996 35.0835 57.9996C35.0934 57.9996 35.1034 57.9995 35.1136 57.9992C35.7204 57.9805 36.3169 57.8634 36.8867 57.651C39.7555 56.5794 41.2179 53.3737 40.1463 50.5047C40.1325 50.4679 40.1164 50.4318 40.0984 50.3968ZM36.2045 55.824C35.844 55.9584 35.4668 56.0341 35.0832 56.0491C34.6993 56.0341 34.3222 55.9585 33.9622 55.8242C32.1181 55.1354 31.1696 53.0877 31.8278 51.2394L35.0832 44.9655L38.3381 51.2394C38.9965 53.0875 38.0481 55.1353 36.2045 55.824Z" fill="white"/>
</svg>
